HIERARCHY
ROOT hip
{
	OFFSET 0.000000 0.000000 0.000000 
	CHANNELS 6 Xposition Yposition Zposition Xrotation Zrotation Yrotation
	JOINT abdomen
	{
		OFFSET 0.000000 3.402643 0.000000 
		CHANNELS 3 Xrotation Zrotation Yrotation
		JOINT chest
		{
			OFFSET 0.000000 8.438565 -0.680529 
			CHANNELS 3 Xrotation Zrotation Yrotation
			JOINT neck
			{
				OFFSET 0.000000 10.207942 -0.272212 
				CHANNELS 3 Xrotation Zrotation Yrotation
				JOINT head
				{
					OFFSET 0.000000 3.130431 0.000000 
					CHANNELS 3 Xrotation Zrotation Yrotation
					End Site
					{
						OFFSET 0.000000 3.130435 0.000000 
					}
				}
			}
			JOINT lCollar
			{
				OFFSET 3.470700 6.669187 -0.816635 
				CHANNELS 3 Yrotation Zrotation Xrotation
				JOINT lShldr
				{
					OFFSET 3.198488 0.000000 0.000000 
					CHANNELS 3 Zrotation Yrotation Xrotation
					JOINT lForeArm
					{
						OFFSET 10.139888 0.000000 0.000000 
						CHANNELS 3 Yrotation Zrotation Xrotation
						JOINT lHand
						{
							OFFSET 8.370511 0.000000 0.000000 
							CHANNELS 3 Zrotation Yrotation Xrotation
							End Site
							{
								OFFSET 4.083176 0.000000 0.000000 
							}
						}
					}
				}
			}
			JOINT rCollar
			{
				OFFSET -3.470700 6.669187 -0.816635 
				CHANNELS 3 Yrotation Zrotation Xrotation
				JOINT rShldr
				{
					OFFSET -3.198488 0.000000 0.000000 
					CHANNELS 3 Zrotation Yrotation Xrotation
					JOINT rForeArm
					{
						OFFSET -10.139888 0.000000 0.000000 
						CHANNELS 3 Yrotation Zrotation Xrotation
						JOINT rHand
						{
							OFFSET -8.370511 0.000000 0.000000 
							CHANNELS 3 Zrotation Yrotation Xrotation
							End Site
							{
								OFFSET -4.083176 0.000000 0.000000 
							}
						}
					}
				}
			}
		}
	}
	JOINT lThigh
	{
		OFFSET 5.308129 -1.633274 1.361059 
		CHANNELS 3 Xrotation Zrotation Yrotation
		JOINT lShin
		{
			OFFSET -2.041588 -20.007561 0.000000 
			CHANNELS 3 Xrotation Zrotation Yrotation
			JOINT lFoot
			{
				OFFSET 0.000000 -19.190928 -1.224953 
				CHANNELS 3 Xrotation Yrotation Zrotation
				End Site
				{
					OFFSET 0.000000 -2.449906 4.627600 
				}
			}
		}
	}
	JOINT rThigh
	{
		OFFSET -5.308129 -1.633274 1.361059 
		CHANNELS 3 Xrotation Zrotation Yrotation
		JOINT rShin
		{
			OFFSET 2.041588 -20.007561 0.000000 
			CHANNELS 3 Xrotation Zrotation Yrotation
			JOINT rFoot
			{
				OFFSET 0.000000 -19.190928 -1.224953 
				CHANNELS 3 Xrotation Yrotation Zrotation
				End Site
				{
					OFFSET 0.000000 -2.449906 4.627600 
				}
			}
		}
	}
}
MOTION
Frames: 18
Frame Time: 0.033333
-1.003695 49.898792 4.071057 0.351563 4.541011 44.160965 61.196972 -11.490857 -6.601507 -16.562500 8.974610 1.113281 51.063168 8.107644 2.471410 -99.560547 1.230469 54.111538 2.000000 -2.000000 0.000000 -56.894531 9.892579 -0.691680 -124.694504 1.563418 -2.767096 42.943455 31.786777 41.026424 -2.000000 2.000000 0.000000 80.947266 -32.822266 -20.214844 118.516182 -1.186492 -3.194359 -28.432497 -62.751373 36.422577 -10.162431 14.269240 13.128746 25.129900 -4.814855 -2.356826 -1.964138 -1.716778 2.700388 -24.960649 -25.135832 -23.533651 68.170609 1.689435 4.244204 18.005320 -12.025975 7.659583 
-2.007386 49.898792 8.142102 0.000000 3.496094 45.517582 59.794289 -10.179047 -7.170694 -16.738281 8.984375 0.371094 51.063168 8.107644 2.471410 -101.435547 5.312500 54.394531 2.000000 -2.000000 0.000000 -54.638668 6.035156 2.510792 -131.725052 1.993258 -2.440413 45.362389 21.700325 32.481270 -2.000000 2.000000 0.000000 85.390625 -33.798828 -25.273438 120.449692 -1.254737 -3.198295 5.972127 -60.464291 11.896794 -6.952768 19.573948 15.113219 22.479185 -4.837274 -2.276887 4.304816 -4.864351 6.986288 -22.333536 -27.037922 -27.465332 64.841110 1.972476 4.354425 8.141306 -17.798010 7.633590 
-3.081081 49.670322 12.259224 -0.361328 2.617188 46.728516 58.396580 -9.087831 -7.601138 -16.738281 8.984375 -0.156250 51.063168 8.107644 2.471410 -103.837891 8.818359 53.925781 2.000000 -2.000000 0.000000 -52.910156 3.173828 4.219292 -136.993240 2.208197 -2.276935 48.100513 14.193217 25.044992 -2.000000 2.000000 0.000000 89.804688 -34.306641 -31.044920 122.200310 -1.502813 -2.968401 31.385658 -53.142391 -3.743739 -9.120569 25.647673 14.745451 23.515133 -4.769467 -2.213730 25.922022 -4.227057 12.910324 -19.062025 -26.770981 -30.011072 57.495937 2.579472 4.069167 0.184913 -18.853645 6.268697 
-4.350526 49.040085 16.523760 -0.722656 1.904297 48.125000 57.780975 -8.732969 -6.987370 -16.728516 9.160157 0.234375 51.063168 8.107644 2.471410 -106.689453 10.585936 51.806637 2.000000 -2.000000 0.000000 -53.281246 3.154297 3.516164 -137.168457 2.023758 -2.588524 48.239479 11.393746 20.580368 -2.000000 2.000000 0.000000 93.623047 -33.779293 -36.773006 124.136772 -1.584352 -3.080676 45.630116 -45.987976 -10.522555 -14.696341 28.170286 14.027049 34.276611 -4.395737 -3.049941 25.401878 2.545939 13.714343 -14.375144 -22.653280 -29.012339 47.311539 3.350853 3.743828 -3.313825 -15.316958 5.752796 
-5.689968 50.639339 20.834238 -1.425781 1.572266 49.355736 58.071831 -9.649385 -4.073537 -16.201174 9.121094 2.431641 51.063168 8.107644 2.471410 -111.601563 7.949217 47.784550 2.000000 -2.000000 0.000000 -57.666016 6.699219 0.156250 -129.438385 1.752610 -2.709652 43.296574 15.564312 20.166681 -2.000000 2.000000 0.000000 95.947266 -31.132813 -43.130051 125.708870 -1.847019 -3.105641 49.484997 -43.758533 -11.290351 -23.808430 29.413431 11.764358 49.775734 -3.487450 -3.874428 19.304693 12.379086 6.396873 -9.452866 -16.799175 -26.194618 36.227238 4.062156 2.896532 -4.549349 -9.582344 4.887001 
-6.792245 51.104141 24.933180 -3.007812 2.275391 50.322651 59.041687 -11.591811 0.431260 -15.468749 9.257813 5.577744 51.063168 8.107644 2.471410 -114.062500 1.464844 43.828377 2.000000 -2.000000 0.000000 -65.048828 11.835938 -6.103516 -115.936577 0.722467 -3.099401 34.942780 24.997221 21.219486 -2.000000 2.000000 0.000000 89.833984 -27.734373 -40.400391 126.417633 -1.855479 -2.959458 34.583973 -54.449306 -6.517967 -33.041542 28.773056 9.845061 64.682571 -2.378650 -4.733236 12.591529 22.307226 -4.123361 -5.732453 -12.609692 -25.483576 28.683998 4.457311 2.356656 -6.439601 -3.599045 1.845661 
-7.599930 51.088379 28.739937 -4.951172 3.671875 51.348282 59.626656 -13.776223 3.590797 -14.765626 9.218750 8.154297 51.063168 8.107644 2.471410 -111.699219 -4.199218 41.455086 2.000000 -2.000000 0.000000 -73.330078 18.779297 -15.292970 -102.207413 0.720464 -2.796161 25.062147 35.990211 21.177740 -2.000000 2.000000 0.000000 75.869141 -23.496094 -27.773436 126.400749 -1.898584 -3.059731 -20.845852 -66.226677 31.567785 -38.870678 26.595743 9.618722 73.231804 -1.813380 -4.819602 6.903900 28.180773 -11.142290 -1.573102 -7.896281 -28.026089 30.090303 4.389071 2.619159 -11.235489 -3.771716 2.371145 
-8.291306 51.710754 32.408062 -5.644531 4.541016 52.461708 58.837299 -16.356129 4.932615 -14.218751 9.345704 9.521483 51.063168 8.107644 2.471410 -108.759766 -7.636718 39.765629 2.000000 -2.000000 0.000000 -79.091797 24.873047 -24.556438 -94.679779 -0.277600 -3.139212 17.486160 43.192986 20.398464 -2.000000 2.000000 0.000000 65.771484 -18.955078 -18.417969 126.752274 -1.918083 -3.060859 -65.683914 -58.940174 62.932125 -39.203594 21.362312 13.472521 71.148453 -1.813205 -4.768147 0.695999 27.719490 -10.802286 4.048676 -2.233919 -30.751373 25.347666 4.692209 1.844211 -10.086999 -3.559910 2.936440 
-8.912767 52.435535 36.031296 -3.720703 4.199219 54.395248 57.513908 -19.273024 5.881054 -13.671876 9.501953 10.527344 51.063168 8.107644 2.471410 -108.925781 -12.402344 39.451031 2.000000 -2.000000 0.000000 -80.449219 28.505859 -28.126701 -94.837860 0.255471 -2.886525 12.891804 46.023026 19.778067 -2.000000 2.000000 0.000000 60.917965 -19.521484 -15.507813 128.333389 -1.968521 -3.034441 -69.368668 -49.463600 63.012825 -36.282974 13.276078 19.085936 61.337605 -2.798336 -4.562006 -5.735676 21.040754 -4.984558 -1.650603 -3.045624 -34.722805 35.186096 4.223110 2.376189 8.296203 -2.734711 4.196233 
-9.510703 53.089413 39.703243 -0.537109 3.154297 56.396484 56.461987 -21.684464 6.049161 -13.134766 9.453125 10.978168 51.063168 8.107644 2.471410 -110.107422 -17.822266 41.201172 2.000000 -2.000000 0.000000 -81.669922 32.236328 -31.337894 -99.936874 0.272147 -2.936383 11.510280 47.051083 20.325731 -2.000000 2.000000 0.000000 57.324219 -23.154297 -14.535089 129.738998 -2.018395 -3.017767 -60.632710 -41.717525 55.263588 -31.958178 6.988951 22.632820 49.929161 -3.839172 -3.887187 -8.367274 11.492564 0.000956 -5.126404 -3.803277 -39.011208 35.158775 4.129998 2.831360 35.095222 -0.986594 4.766775 
-10.131516 53.443935 43.517635 1.406250 2.617188 58.076622 56.007275 -22.528572 5.513739 -13.154298 9.287110 10.566406 51.063168 8.107644 2.471410 -110.351563 -19.375000 42.311214 2.000000 -2.000000 0.000000 -82.148438 34.960938 -33.925777 -106.618095 0.522243 -3.009561 11.824001 46.937569 22.417850 -2.000000 2.000000 0.000000 57.558590 -25.986328 -16.396484 128.876160 -1.976985 -2.888594 -46.532631 -41.581310 45.791103 -24.665173 3.894846 23.559124 36.907093 -4.275716 -3.221907 -7.816433 1.740337 2.622200 -2.507938 0.154476 -41.106510 26.547054 4.647563 1.914146 50.336437 -0.075251 5.928498 
-10.763009 52.364635 47.460129 1.933594 3.154297 59.170460 56.440269 -21.121675 4.123185 -13.906250 8.652345 9.200687 51.063168 8.107644 2.471410 -108.417969 -15.917968 42.597660 2.000000 -2.000000 0.000000 -83.291016 36.953125 -36.732407 -112.229378 0.734879 -2.885002 13.732413 47.646053 24.946835 -2.000000 2.000000 0.000000 66.816406 -25.166016 -26.263918 123.611237 -1.775640 -2.818250 -4.444131 -48.724865 16.009220 -15.348094 2.516830 23.049200 22.638641 -4.912697 -2.158445 -6.439573 -9.017255 4.098291 -4.844317 -4.796542 -42.177795 35.360683 4.212161 2.211879 54.157784 0.701011 8.664242 
-11.370420 50.828407 51.448105 1.933594 4.033203 60.429688 57.474907 -18.543543 1.905694 -14.843751 7.851562 6.914062 51.063168 8.107644 2.471410 -105.312492 -10.039062 43.123299 2.000000 -2.000000 0.000000 -77.558594 37.021488 -35.478516 -115.216866 1.018736 -2.881912 20.865307 49.541512 31.649981 -2.000000 2.000000 0.000000 79.326172 -20.615236 -39.007347 115.711693 -1.267866 -3.140599 48.172901 -37.699383 -21.035238 -8.218176 2.847033 21.179752 12.053467 -5.197028 -1.244078 -7.028067 -18.049736 2.936521 -8.487077 -13.365640 -42.341007 49.085442 3.216521 3.671601 47.627022 -3.801509 12.125667 
-11.966344 50.016964 55.472980 1.572266 4.902344 61.319199 58.479664 -15.336208 -0.414815 -15.957033 6.884765 4.394532 51.063168 8.107644 2.471410 -101.865234 -3.349609 44.443363 2.000000 -2.000000 0.000000 -66.728516 35.585934 -30.166016 -117.834549 1.495040 -2.596887 31.241514 50.748573 40.274475 -2.000000 2.000000 0.000000 85.556641 -17.753906 -42.913128 111.675148 -0.943501 -3.336796 67.278511 -27.860447 -31.341187 -8.755649 6.644617 16.357620 16.474817 -5.067304 -1.668395 -7.508214 -14.848598 0.576846 -13.145192 -22.966082 -40.759552 63.815872 2.064226 4.293325 36.266483 -9.597430 15.296068 
-12.563214 50.064228 59.526447 0.869141 5.791016 61.777340 59.277817 -12.260744 -2.524880 -16.875002 6.240234 2.197266 51.063168 8.107644 2.471410 -98.408203 2.304687 46.337891 2.000000 -2.000000 0.000000 -58.251953 32.597656 -24.584585 -120.128494 1.204537 -2.882911 39.412575 48.701038 43.598236 -2.000000 2.000000 0.000000 83.720703 -24.013670 -33.535156 113.081490 -1.002215 -2.998120 46.104790 -48.133213 -20.342127 -7.536598 9.692622 10.526608 16.486769 -5.031266 -1.625732 -6.156545 -11.145944 -3.363234 -17.881962 -31.226053 -38.333862 75.924072 1.185117 4.706567 24.146173 -15.421768 17.114056 
-13.173740 50.190289 63.599590 0.341797 6.298822 61.563595 59.607681 -9.977840 -3.783140 -17.412109 6.093750 0.694396 51.063168 8.107644 2.471410 -96.328125 5.449218 48.643505 2.000000 -2.000000 0.000000 -54.521488 28.447268 -17.304688 -125.054176 1.401640 -2.689238 40.094540 42.242973 35.322361 -2.000000 2.000000 0.000000 75.410156 -34.326176 -17.534803 117.473709 -0.957752 -3.259393 -35.406681 -56.984810 44.467777 -3.963816 13.616827 7.606945 12.786850 -5.137537 -1.299987 -2.751513 -9.561985 -5.603251 -21.026121 -35.553368 -35.931641 81.704941 0.628431 4.582853 15.666070 -18.940855 16.988461 
-13.810417 49.843651 67.683952 -0.908203 6.142579 59.482422 58.708790 -9.369882 -3.621102 -16.962891 8.134767 1.015625 51.063168 8.107644 2.471410 -96.699219 4.365234 50.283951 2.000000 -2.000000 0.000000 -53.750000 20.312502 -8.629421 -130.319702 1.942813 -2.466806 39.948032 33.261627 23.676449 -2.000000 2.000000 0.000000 67.460938 -42.158203 -6.998741 121.683334 -1.462687 -2.985637 -70.862122 -38.674313 69.271065 1.687208 18.567879 12.356518 7.527936 -5.218558 -0.866045 0.507143 -10.960215 0.308575 -21.211390 -35.740982 -35.129726 78.686058 0.530561 4.413336 13.338406 -18.836432 16.522398 
-14.485860 49.252789 71.771095 -2.470703 5.087928 55.850281 57.121037 -9.799016 -2.535613 -15.908202 11.171875 2.433533 51.063168 8.107644 2.471410 -99.433594 0.869141 51.172020 2.000000 -2.000000 0.000000 -55.917969 13.164063 -2.539063 -131.184402 2.156048 -2.332564 39.793655 27.791338 15.522363 -2.000000 2.000000 0.000000 68.085945 -44.394531 -13.190426 122.737968 -1.501684 -2.987893 -60.056072 -45.026012 62.840096 8.601171 23.122219 21.209959 1.702892 -4.858713 -0.351969 7.833708 -12.354714 7.971524 -18.975739 -33.342670 -34.623062 70.459457 1.477678 4.457965 13.034607 -18.339861 15.006545 
